<?xml version="1.0" encoding="UTF-8"?><svg xmlns="http://www.w3.org/2000/svg" xmlns:xlink="http://www.w3.org/1999/xlink" height="851.7" preserveAspectRatio="xMidYMid meet" version="1.0" viewBox="-4.2 0.0 304.4 851.7" width="304.4" zoomAndPan="magnify"><g id="change1_1"><path d="M133.6,409.7c-0.8,45.5,15.1,85.3,39.5,122.3c3.3,5,8.4,10.3,13.8,12.2c18.1,6.2,36.8,10.8,55,16.5 c4.1,1.3,9.9,4.3,10.5,7.3c0.1,7.5-2.1,13.8-30.7,24.3c-40.9,19.8-57.8,55-58.2,97.9c-0.4,45.5,3.2,91.1,4.6,136.6 c0.3,8.9,5,19.5-7.8,22.1c-8.5,2.8-10.3-9.2-12.7-17c-8-26.4-16.3-52.8-21.8-79.7c-8.6-41.6-28.7-76.8-54.6-109.3 c-14-17.6-56.9-26.7-57.9-26.7C-4.2,617-3.3,599.4,9.5,593c0.6-0.3,18.7-12.6,27.2-18.5c40-27.4,56.6-68.4,65.1-114 c4.2-22.3,7.9-44.8,12.4-67.1c0.3-1.5,0.7-3,1.3-4.4C117.4,383.5,133.7,374.6,133.6,409.7z M198.2,568.4 c-40.9-13.1-55.8-46.8-68.6-82.3c-3-8.2-14.7-7.7-16.9,0.7c-11.2,43.3-33.7,79-72.9,104.7c-6,4-5.1,13.1,1.6,15.7 c1.8,0.7,3.4,1.4,5.1,2.3c11.8,6.1,25.5,10.9,34.1,20.2c13.8,15,25.4,31.8,34.5,50c5.2,10.5,9.7,21.2,13.9,31.7 c3.5,8.9,16.6,6.7,17.1-2.8c0.5-10.8,1.3-21.9,2.4-33c3.8-37.6,17.3-70.6,51.6-91.2c0,0,0.1-0.1,0.1-0.1 C206.8,580.4,205.5,570.7,198.2,568.4z M224.9,21.1c5.2,24,8.5,48.7,16.2,71.8c7.4,21.8,27.1,29.9,49.1,32.4c0,0,0.1,0,0.1,0 c7.4,1,9.9,10.6,4,15.2c-0.9,0.7-8.5,3-11.3,3.7c-33.4,8.5-41.7,19.2-39.9,54c1,18.9,4,37.6,4.8,56.5c0.2,6.2-3.8,12.6-5.8,18.9 c-4.4-4.6-11.5-8.5-12.9-13.9c-4.8-19.2-7.3-39-11.4-58.4c-6.7-32.4-18.1-41.7-51.3-44c-13.8-0.2-23.1-10.1-5.5-15.7 c37.5-15.3,43.3-49,47.9-83.2c2-14.9,1.1-23.7,2.8-38.7C212.3,15,214.1,0,218.9,0C223,0,224.9,21.1,224.9,21.1z M220.4,84.3 c-8.8,36.4-30.8,56.6-30.8,56.6c10.3,2,40.6,39.5,40.6,39.5c3-14.8,8.5-40.3,27.8-46.6C237.6,121.4,224.6,106.6,220.4,84.3z" fill="#EBCFBF"/></g></svg>