<?xml version="1.0" encoding="UTF-8"?><svg xmlns="http://www.w3.org/2000/svg" xmlns:xlink="http://www.w3.org/1999/xlink" height="220.7" preserveAspectRatio="xMidYMid meet" version="1.0" viewBox="83.5 102.3 257.1 220.7" width="257.1" zoomAndPan="magnify"><g><g id="change1_2"><path d="M249.96,278.56c-0.88,0-1.73-0.47-2.19-1.29c-12.03-21.72-8.41-53.55-1.31-67.25c0.42-0.8,1.23-1.32,2.13-1.35 c0.89-0.03,1.75,0.42,2.22,1.19c0.79,1.28,19.26,31.48,23.02,39.53c0.58,1.25,0.04,2.74-1.21,3.32 c-1.25,0.58-2.74,0.04-3.32-1.21c-2.83-6.07-14.92-26.14-20.23-34.89c-4.63,12.94-7.68,38.8,3.08,58.23 c0.67,1.21,0.23,2.73-0.98,3.4C250.78,278.46,250.37,278.56,249.96,278.56z" fill="inherit"/></g><g id="change1_3"><path d="M289.14,247.65c-0.97,0-1.9-0.57-2.3-1.53c-1.61-3.81-6.71-15.59-19.37-42.72c-2.58-5.54-12.08-23.43-25.65-21.01 l-2.46,0.44c-8.15,1.47-12.24,2.2-15.12,0.8c-3.09-1.51-4.94-5.12-4.94-9.64l0-8.4c0-1.38,1.12-2.5,2.5-2.5 c1.38,0,2.5,1.12,2.5,2.5l0,8.4c0,1.9,0.56,4.38,2.13,5.15c1.41,0.69,5.87-0.11,12.05-1.22l2.47-0.44 c5.54-0.98,19.64-0.63,31.05,23.82c12.69,27.2,17.83,39.05,19.45,42.89c0.54,1.27-0.06,2.74-1.33,3.28 C289.79,247.59,289.46,247.65,289.14,247.65z" fill="inherit"/></g><g id="change1_4"><path d="M330.86,280.55c-1.29,0-2.58-0.27-3.79-0.8l-52.32-22.92c-2.65-1.16-4.71-3.23-5.54-5.54c-0.46-1.3,0.22-2.73,1.52-3.19 c1.3-0.46,2.73,0.22,3.19,1.52c0.34,0.97,1.51,2.05,2.83,2.63l52.32,22.92c1.09,0.48,2.31,0.5,3.43,0.06 c1.12-0.44,2-1.28,2.48-2.37s0.5-2.31,0.06-3.43s-1.28-2-2.37-2.48l-44.54-19.51c-1.26-0.55-1.84-2.03-1.29-3.29 c0.55-1.27,2.03-1.84,3.29-1.29l44.54,19.51c2.31,1.01,4.1,2.88,5.02,5.24c0.92,2.37,0.88,4.94-0.14,7.26 c-1.01,2.31-2.88,4.1-5.24,5.02C333.2,280.33,332.03,280.55,330.86,280.55z" fill="inherit"/></g><g id="change1_5"><path d="M175.24,280.42c-0.41,0-0.82-0.1-1.21-0.31c-1.21-0.67-1.64-2.19-0.98-3.4c10.39-18.75,7.89-45.14,3.1-58.62 c-5.31,8.87-17.42,29.21-20.25,35.29c-0.58,1.25-2.07,1.79-3.32,1.21c-1.25-0.58-1.79-2.07-1.21-3.32 c3.76-8.05,22.24-38.65,23.02-39.95c0.47-0.77,1.32-1.25,2.22-1.21c0.9,0.03,1.72,0.54,2.14,1.35 c7.14,13.78,10.78,45.82-1.32,67.68C176.97,279.95,176.12,280.42,175.24,280.42z" fill="inherit"/></g><g id="change1_6"><path d="M136.06,249.5c-0.32,0-0.65-0.06-0.97-0.2c-1.27-0.54-1.87-2-1.33-3.28c1.62-3.83,6.75-15.69,19.45-42.89 c11.41-24.46,25.52-24.81,31.05-23.82l2.47,0.44c6.17,1.11,10.63,1.91,12.05,1.22c1.57-0.77,2.13-3.26,2.13-5.15v-12.13 c0-1.38,1.12-2.5,2.5-2.5s2.5,1.12,2.5,2.5v12.13c0,4.53-1.85,8.13-4.94,9.64c-2.88,1.41-6.97,0.67-15.12-0.8l-2.46-0.44 c-13.56-2.41-23.06,15.47-25.65,21.01c-12.66,27.13-17.76,38.91-19.37,42.72C137.96,248.93,137.03,249.5,136.06,249.5z" fill="inherit"/></g><g id="change1_7"><path d="M94.34,282.41c-1.17,0-2.34-0.22-3.47-0.66c-2.37-0.92-4.23-2.71-5.24-5.02c-2.1-4.79,0.09-10.4,4.89-12.5l44.54-19.51 c1.27-0.56,2.74,0.02,3.29,1.29s-0.02,2.74-1.29,3.29L92.52,268.8c-1.09,0.48-1.93,1.36-2.37,2.48s-0.42,2.34,0.06,3.43 s1.36,1.93,2.48,2.37c1.12,0.44,2.34,0.42,3.43-0.06l52.32-22.92c1.32-0.58,2.48-1.66,2.83-2.63c0.46-1.3,1.89-1.98,3.19-1.52 c1.3,0.46,1.98,1.89,1.52,3.19c-0.82,2.31-2.89,4.38-5.54,5.54l-52.32,22.92C96.92,282.14,95.63,282.41,94.34,282.41z" fill="inherit"/></g><g id="change2_1"><path d="M303.16,284.27c-4.98-7.42-18.56-12.23-28.81-12.59c-0.9-0.03-1.81-0.05-2.72-0.05 c-8.35,0-17.05,1.31-26.59,4c-0.26,0.09-0.53,0.17-0.8,0.23c-12.62,3.64-24.92,9.25-34.23,13.72c-0.85,0.41-1.75,0.64-2.67,0.69 c13.41,8.87,26.36,18.59,38.53,27.72l0.98,0.74h2.44c0.86,0.01,1.65,0.01,2.42,0.01c39.78,0,48.98-12.5,52.44-21.9 C305.94,291.95,305.63,287.95,303.16,284.27z" fill="#dee276"/></g><g id="change2_2"><path d="M169.13,320.43c-14.11-0.36-40.39-1.03-50.12-15.99c-4.17-6.41-4.94-12.3-2.26-17.49 c3.72-7.24,16.69-15.32,33.39-16.05c0.83-0.04,1.66-0.05,2.49-0.05c32.57,0,69.27,27.1,99.22,49.58L169.13,320.43z" fill="#dee276"/></g><g id="change2_3"><ellipse cx="211.97" cy="135.18" fill="#dee276" rx="24.74" ry="30.41"/></g><g id="change1_9"><path d="M211.97,168.09c-15.02,0-27.24-14.76-27.24-32.91s12.22-32.91,27.24-32.91c5.12,0,10.11,1.72,14.43,4.98 c1.1,0.83,1.32,2.4,0.49,3.5c-0.83,1.1-2.4,1.32-3.5,0.49c-3.44-2.6-7.39-3.97-11.42-3.97c-12.26,0-22.24,12.52-22.24,27.91 c0,15.39,9.98,27.91,22.24,27.91c4.34,0,8.55-1.58,12.17-4.56c1.07-0.88,2.64-0.73,3.52,0.34c0.88,1.07,0.73,2.64-0.34,3.52 C222.79,166.11,217.49,168.09,211.97,168.09z" fill="inherit"/></g><g id="change1_1"><path d="M227.44,306.74c-1.08,0-2.08-0.71-2.4-1.8c-0.39-1.33,0.38-2.71,1.7-3.1c16.17-4.7,34.33-10.25,37.04-11.56 c0.44-0.4,1.03-0.64,1.67-0.64c1.38,0,2.5,1.12,2.5,2.5c0,2.17-1.62,2.7-7.65,4.71c-3.17,1.05-7.59,2.44-13.13,4.13 c-9.41,2.86-18.94,5.64-19.04,5.66C227.91,306.71,227.67,306.74,227.44,306.74z M262.95,292.14 C262.95,292.14,262.95,292.14,262.95,292.14C262.95,292.14,262.95,292.14,262.95,292.14z M262.95,292.14 C262.95,292.14,262.95,292.14,262.95,292.14C262.95,292.14,262.95,292.14,262.95,292.14z M263,291.65 c-0.03,0.15-0.05,0.31-0.05,0.48C262.95,291.97,262.97,291.81,263,291.65z" fill="inherit"/></g><g id="change1_8"><path d="M249.34,322.93c-0.52,0-1.05-0.16-1.5-0.5l-2.37-1.78c-28.61-21.48-64.26-48.21-95.21-46.86 c-11.16,0.49-25.42,5.85-29.97,13.98c-0.67,1.2-2.2,1.64-3.4,0.96c-1.21-0.67-1.64-2.2-0.96-3.4 c6.33-11.31,23.87-16.08,34.12-16.53c32.78-1.42,69.18,25.9,98.43,47.86l2.37,1.78c1.1,0.83,1.33,2.4,0.5,3.5 C250.85,322.58,250.1,322.93,249.34,322.93z" fill="inherit"/></g><g id="change1_10"><path d="M294.86,313.54c-0.75,0-1.49-0.33-1.98-0.97c-0.85-1.09-0.65-2.66,0.44-3.51c3.84-2.97,6.64-6.8,8.31-11.36 c1.84-4.99,1.44-9.49-1.17-13.38c-4.93-7.34-17.01-11.52-26.4-11.85c-19.02-0.67-37.47,6.85-54.59,15.08 c-1.24,0.6-2.74,0.08-3.34-1.17c-0.6-1.24-0.07-2.74,1.17-3.34c16.84-8.1,36.78-16.29,56.93-15.57 c10.32,0.36,24.23,4.92,30.37,14.06c3.51,5.22,4.1,11.41,1.71,17.89c-2.01,5.46-5.35,10.02-9.94,13.58 C295.94,313.37,295.4,313.54,294.86,313.54z" fill="inherit"/></g></g></svg>